:FULLY-SPECIFIED
:FORCE-ALL-JOINTS-BE-3DOF
:DEGREES
63
root 0.556893 17.3707 -2.87504 2.19593 -1.95266 -1.0225
lfemur -22.5269 5.43009 -18.2705
ltibia 76.0099 0 0
lfoot -0.955963 -2.87553 0
ltoes -13.0361 0 0
rfemur -12.0375 -5.0645 23.7619
rtibia 75.414 0 0
rfoot 4.86704 -6.56621 0
rtoes 9.0078 0 0
lowerback 18.1796 -0.717051 -0.72241
upperback 2.78416 -1.06347 -0.340119
thorax -7.13653 -0.52099 0.29365
lowerneck -3.97975 0.818218 -0.660182
upperneck -12.9955 1.03215 0.561795
head -3.20547 0.592334 0.228537
lclavicle -3.14331e-15 2.93167e-14 0
lhumerus -36.9235 -12.2734 90.998
lradius 104.944 0 0
lwrist 32.1324 0 0
lhand -37.8301 10.9794 0
lfingers 7.12502 0 0
lthumb -10.8751 40.6696 0
rclavicle -3.14331e-15 2.93167e-14 0
rhumerus -38.7501 9.2792 -86.6081
rradius 90.4391 0 0
rwrist -0.593674 0 0
rhand -44.3692 37.9523 0
rfingers 7.12502 0 0
rthumb -17.1768 8.68815 0
64
root 0.557567 17.3745 -2.33571 2.07295 -1.43005 -0.725803
lfemur -22.1672 4.74696 -18.9515
ltibia 73.3423 0 0
lfoot -2.13668 -2.73772 0
ltoes -13.285 0 0
rfemur -12.0398 -5.6113 23.1567
rtibia 77.8171 0 0
rfoot 6.29343 -6.56783 0
rtoes 10.1637 0 0
lowerback 18.1684 -0.716683 -1.06288
upperback 2.80938 -1.14284 -0.518395
thorax -7.09919 -0.552213 0.313924
lowerneck -4.15249 0.674298 -0.767288
upperneck -12.7472 0.871152 0.881424
head -3.10874 0.507259 0.350783
lclavicle -2.46859e-15 3.02918e-14 0
lhumerus -36.0175 -12.4262 90.5879
lradius 105.071 0 0
lwrist 31.967 0 0
lhand -37.711 10.7568 0
lfingers 7.12502 0 0
lthumb -10.7601 40.453 0
rclavicle -2.46859e-15 3.02918e-14 0
rhumerus -39.3898 9.04951 -86.5119
rradius 89.6612 0 0
rwrist -0.452042 0 0
rhand -44.3842 37.9589 0
rfingers 7.12502 0 0
rthumb -17.1912 8.69626 0
65
root 0.558241 17.3783 -1.79638 1.95046 -0.910752 -0.429838
lfemur -21.7986 4.06806 -19.6298
ltibia 70.6884 0 0
lfoot -3.30605 -2.59921 0
ltoes -13.5303 0 0
rfemur -12.0496 -6.1517 22.5546
rtibia 80.2019 0 0
rfoot 7.70891 -6.56912 0
rtoes 11.313 0 0
lowerback 18.1574 -0.716713 -1.40161
upperback 2.83389 -1.22237 -0.695534
thorax -7.06271 -0.583518 0.334479
lowerneck -4.32487 0.531632 -0.873714
upperneck -12.4987 0.711702 1.19855
head -3.01208 0.422935 0.472169
lclavicle -1.80814e-15 3.12501e-14 0
lhumerus -35.1134 -12.5822 90.1794
lradius 105.2 0 0
lwrist 31.8002 0 0
lhand -37.5923 10.5342 0
lfingers 7.12502 0 0
lthumb -10.6456 40.2364 0
rclavicle -1.80814e-15 3.12501e-14 0
rhumerus -40.0294 8.82176 -86.4162
rradius 88.8859 0 0
rwrist -0.312094 0 0
rhand -44.4001 37.9663 0
rfingers 7.12502 0 0
rthumb -17.2065 8.70513 0
66
root 0.558915 17.3821 -1.25706 1.82878 -0.397088 -0.135835
lfemur -21.4222 3.3965 -20.3021
ltibia 68.0604 0 0
lfoot -4.45804 -2.46055 0
ltoes -13.7711 0 0
rfemur -12.0665 -6.68327 21.9581
rtibia 82.5569 0 0
rfoot 9.10717 -6.57009 0
rtoes 12.4511 0 0
lowerback 18.1464 -0.717158 -1.73705
upperback 2.85757 -1.30171 -0.87073
thorax -7.02721 -0.614775 0.355225
lowerneck -4.49633 0.390877 -0.978998
upperneck -12.2509 0.554538 1.51168
head -2.91579 0.339751 0.592127
lclavicle -1.16536e-15 3.21884e-14 0
lhumerus -34.2158 -12.7409 89.7744
lradius 105.329 0 0
lwrist 31.6326 0 0
lhand -37.4746 10.3125 0
lfingers 7.12502 0 0
lthumb -10.5321 40.0207 0
rclavicle -1.16536e-15 3.21884e-14 0
rhumerus -40.6657 8.59697 -86.3211
rradius 88.1168 0 0
rwrist -0.174463 0 0
rhand -44.4167 37.9742 0
rfingers 7.12502 0 0
rthumb -17.2225 8.71468 0
67
root 0.559589 17.3859 -0.717729 1.70823 0.108631 0.154978
lfemur -21.0392 2.73537 -20.9655
ltibia 65.4704 0 0
lfoot -5.58661 -2.32232 0
ltoes -14.0061 0 0
rfemur -12.09 -7.20358 21.37
rtibia 84.8704 0 0
rfoot 10.4819 -6.57079 0
rtoes 13.5735 0 0
lowerback 18.1355 -0.718033 -2.06765
upperback 2.88034 -1.3805 -1.04317
thorax -6.99281 -0.64585 0.376073
lowerneck -4.66632 0.252694 -1.08268
upperneck -12.0047 0.400399 1.81928
head -2.82019 0.2581 0.710088
lclavicle -5.43636e-16 3.31038e-14 0
lhumerus -33.3295 -12.9016 89.3749
lradius 105.458 0 0
lwrist 31.4648 0 0
lhand -37.3583 10.0926 0
lfingers 7.12502 0 0
lthumb -10.4199 39.8068 0
rclavicle -5.43636e-16 3.31038e-14 0
rhumerus -41.296 8.37613 -86.227
rradius 87.3571 0 0
rwrist -0.0397857 0 0
rhand -44.4339 37.9827 0
rfingers 7.12502 0 0
rthumb -17.2391 8.7248 0
68
root 0.560263 17.3897 -0.178402 1.58914 0.604095 0.441371
lfemur -20.6506 2.08776 -21.6169
ltibia 62.9306 0 0
lfoot -6.68571 -2.18508 0
ltoes -14.2343 0 0
rfemur -12.1195 -7.7102 20.793
rtibia 87.1308 0 0
rfoot 11.8268 -6.57123 0
rtoes 14.6758 0 0
lowerback 18.1247 -0.719354 -2.39188
upperback 2.90209 -1.45841 -1.21206
thorax -6.95964 -0.676611 0.396931
lowerneck -4.83428 0.117742 -1.18429
upperneck -11.7607 0.250024 2.11985
head -2.72556 0.178372 0.825486
lclavicle 5.36551e-17 3.39932e-14 0
lhumerus -32.4591 -13.0638 88.9829
lradius 105.587 0 0
lwrist 31.2975 0 0
lhand -37.2439 9.87545 0
lfingers 7.12502 0 0
lthumb -10.3096 39.5954 0
rclavicle 5.36551e-17 3.39932e-14 0
rhumerus -41.9171 8.16027 -86.1342
rradius 86.6102 0 0
rwrist 0.0913037 0 0
rhand -44.4515 37.9916 0
rfingers 7.12502 0 0
rthumb -17.256 8.7354 0
69
root 0.560937 17.3935 0.360924 1.47184 1.08699 0.722116
lfemur -20.2576 1.45677 -22.2532
ltibia 60.4531 0 0
lfoot -7.74932 -2.04941 0
ltoes -14.4546 0 0
rfemur -12.1545 -8.20071 20.2298
rtibia 89.3265 0 0
rfoot 13.1356 -6.57145 0
rtoes 15.7534 0 0
lowerback 18.1139 -0.721136 -2.70818
upperback 2.92272 -1.53509 -1.37657
thorax -6.92782 -0.706924 0.417709
lowerneck -4.99965 -0.0133208 -1.28338
upperneck -11.5199 0.104151 2.41188
head -2.63222 0.100958 0.937751
lclavicle 6.2312e-16 3.48535e-14 0
lhumerus -31.6093 -13.2268 88.6003
lradius 105.714 0 0
lwrist 31.1314 0 0
lhand -37.1319 9.66181 0
lfingers 7.12502 0 0
lthumb -10.2016 39.3875 0
rclavicle 6.2312e-16 3.48535e-14 0
rhumerus -42.526 7.95039 -86.0429
rradius 85.8795 0 0
rwrist 0.21817 0 0
rhand -44.4692 38.0008 0
rfingers 7.12502 0 0
rthumb -17.273 8.74639 0
70
root 0.561611 17.3973 0.900251 1.35665 1.55501 0.995984
lfemur -19.8612 0.845481 -22.8713
ltibia 58.0501 0 0
lfoot -8.77138 -1.91586 0
ltoes -14.6658 0 0
rfemur -12.1946 -8.67267 19.683
rtibia 91.4457 0 0
rfoot 14.402 -6.57148 0
rtoes 16.8019 0 0
lowerback 18.1033 -0.723396 -3.01501
upperback 2.94212 -1.61019 -1.53591
thorax -6.89747 -0.736657 0.438317
lowerneck -5.16186 -0.139835 -1.37948
upperneck -11.2831 -0.036482 2.69386
head -2.54046 0.0262495 1.04632
lclavicle 1.16137e-15 3.56818e-14 0
lhumerus -30.7846 -13.3901 88.2292
lradius 105.838 0 0
lwrist 30.967 0 0
lhand -37.0229 9.45261 0
lfingers 7.12502 0 0
lthumb -10.0964 39.1839 0
rclavicle 1.16137e-15 3.56818e-14 0
rhumerus -43.1199 7.74751 -85.9534
rradius 85.1683 0 0
rwrist 0.340178 0 0
rhand -44.4869 38.0104 0
rfingers 7.12502 0 0
rthumb -17.2901 8.75767 0
71
root 0.562285 17.4011 1.43958 1.2439 2.00583 1.26175
lfemur -19.4625 0.256994 -23.4682
ltibia 55.7336 0 0
lfoot -9.74587 -1.78501 0
ltoes -14.867 0 0
rfemur -12.2391 -9.12367 19.1555
rtibia 93.477 0 0
rfoot 15.6196 -6.57133 0
rtoes 17.8167 0 0
lowerback 18.0927 -0.726148 -3.31083
upperback 2.96021 -1.68337 -1.68926
thorax -6.86873 -0.765678 0.458665
lowerneck -5.32036 -0.261141 -1.47212
upperneck -11.0511 -0.171136 2.96428
head -2.4506 -0.0453637 1.15061
lclavicle 1.66502e-15 3.64748e-14 0
lhumerus -29.9897 -13.5529 87.8713
lradius 105.96 0 0
lwrist 30.805 0 0
lhand -36.9171 9.24874 0
lfingers 7.12502 0 0
lthumb -9.99444 38.9854 0
rclavicle 1.66502e-15 3.64748e-14 0
rhumerus -43.6956 7.55264 -85.8659
rradius 84.48 0 0
rwrist 0.456692 0 0
rhand -44.5045 38.0202 0
rfingers 7.12502 0 0
rthumb -17.3069 8.76914 0
